<svg xmlns="http://www.w3.org/2000/svg" xmlns:xlink="http://www.w3.org/1999/xlink" width="1776" height="200"
     viewBox="0 0 1776 200">
    <defs>
        <style>.a{fill:#fff;stroke:#707070;}.b{clip-path:url(#a);}.c{fill:#20552c;}.d{fill:#cbffb4;}.e{fill:#2b6438;}
        </style>
        <clipPath id="a">
            <rect class="a" width="1776" height="200"/>
        </clipPath>
    </defs>
    <g class="b">
        <rect class="c" width="1776" height="200" transform="translate(0 0)"/>
        <rect class="d" width="1920" height="32" transform="translate(0 0)"/>
        <rect class="e" width="72" height="40" rx="8" transform="translate(104 72)"/>
        <rect class="e" width="72" height="40" rx="8" transform="translate(136 88)"/>
        <rect class="e" width="72" height="40" rx="8" transform="translate(296 128)"/>
        <rect class="e" width="72" height="40" rx="8" transform="translate(352 120)"/>
        <rect class="e" width="72" height="40" rx="8" transform="translate(880 100)"/>
        <rect class="e" width="72" height="40" rx="8" transform="translate(616 72)"/>
        <rect class="e" width="72" height="40" rx="8" transform="translate(1280 180)"/>
        <rect class="e" width="72" height="40" rx="8" transform="translate(920 120)"/>
        <rect class="e" width="72" height="40" rx="8" transform="translate(1557 80)"/>
        <rect class="e" width="72" height="40" rx="8" transform="translate(1128 80)"/>
        <rect class="e" width="72" height="40" rx="8" transform="translate(1184 72)"/>
        <rect class="e" width="72" height="40" rx="8" transform="translate(1510 100)"/>
        <rect class="e" width="72" height="40" rx="8" transform="translate(1686 128)"/>
        <rect class="e" width="72" height="40" rx="8" transform="translate(48 184)"/>
    </g>
</svg>